<svg width="96" height="128" xmlns="http://www.w3.org/2000/svg">
<style>
  .skin { fill: #f5cba7; }
  .shirt { fill: #3498db; }
  .pants { fill: #34495e; }
  .eye { fill: #2c3e50; }
  .hair { fill: #8d6e63; }
</style>

<!-- ROW 0: DOWN -->
<!-- Col 0: Walk 1 -->
<g transform="translate(0, 0)">
  <rect x="10" y="24" width="4" height="6" class="pants" />
  <rect x="18" y="22" width="4" height="6" class="pants" />
  <rect x="9" y="14" width="14" height="10" class="shirt" />
  <circle cx="16" cy="10" r="7" class="skin" />
  <path d="M 9 9 Q 16 0 23 9" class="hair" />
  <circle cx="13" cy="10" r="1" class="eye" />
  <circle cx="19" cy="10" r="1" class="eye" />
</g>
<!-- Col 1: Stand -->
<g transform="translate(32, 0)">
  <rect x="10" y="24" width="4" height="6" class="pants" />
  <rect x="18" y="24" width="4" height="6" class="pants" />
  <rect x="9" y="14" width="14" height="10" class="shirt" />
  <circle cx="16" cy="10" r="7" class="skin" />
  <path d="M 9 9 Q 16 0 23 9" class="hair" />
  <circle cx="13" cy="10" r="1" class="eye" />
  <circle cx="19" cy="10" r="1" class="eye" />
</g>
<!-- Col 2: Walk 2 -->
<g transform="translate(64, 0)">
  <rect x="10" y="22" width="4" height="6" class="pants" />
  <rect x="18" y="24" width="4" height="6" class="pants" />
  <rect x="9" y="14" width="14" height="10" class="shirt" />
  <circle cx="16" cy="10" r="7" class="skin" />
  <path d="M 9 9 Q 16 0 23 9" class="hair" />
  <circle cx="13" cy="10" r="1" class="eye" />
  <circle cx="19" cy="10" r="1" class="eye" />
</g>

<!-- ROW 1: LEFT -->
<!-- Col 0: Walk 1 -->
<g transform="translate(0, 32)">
  <rect x="16" y="24" width="4" height="6" class="pants" />
  <rect x="11" y="22" width="4" height="6" class="pants" />
  <rect x="11" y="14" width="10" height="10" class="shirt" />
  <circle cx="16" cy="10" r="7" class="skin" />
  <path d="M 9 9 Q 16 0 23 9" class="hair" />
  <circle cx="12" cy="10" r="1" class="eye" />
</g>
<!-- Col 1: Stand -->
<g transform="translate(32, 32)">
  <rect x="14" y="24" width="4" height="6" class="pants" />
  <rect x="11" y="14" width="10" height="10" class="shirt" />
  <circle cx="16" cy="10" r="7" class="skin" />
  <path d="M 9 9 Q 16 0 23 9" class="hair" />
  <circle cx="12" cy="10" r="1" class="eye" />
</g>
<!-- Col 2: Walk 2 -->
<g transform="translate(64, 32)">
  <rect x="11" y="24" width="4" height="6" class="pants" />
  <rect x="16" y="22" width="4" height="6" class="pants" />
  <rect x="11" y="14" width="10" height="10" class="shirt" />
  <circle cx="16" cy="10" r="7" class="skin" />
  <path d="M 9 9 Q 16 0 23 9" class="hair" />
  <circle cx="12" cy="10" r="1" class="eye" />
</g>

<!-- ROW 2: RIGHT -->
<!-- Col 0: Walk 1 -->
<g transform="translate(0, 64)">
  <rect x="12" y="24" width="4" height="6" class="pants" />
  <rect x="17" y="22" width="4" height="6" class="pants" />
  <rect x="11" y="14" width="10" height="10" class="shirt" />
  <circle cx="16" cy="10" r="7" class="skin" />
  <path d="M 9 9 Q 16 0 23 9" class="hair" />
  <circle cx="20" cy="10" r="1" class="eye" />
</g>
<!-- Col 1: Stand -->
<g transform="translate(32, 64)">
  <rect x="14" y="24" width="4" height="6" class="pants" />
  <rect x="11" y="14" width="10" height="10" class="shirt" />
  <circle cx="16" cy="10" r="7" class="skin" />
  <path d="M 9 9 Q 16 0 23 9" class="hair" />
  <circle cx="20" cy="10" r="1" class="eye" />
</g>
<!-- Col 2: Walk 2 -->
<g transform="translate(64, 64)">
  <rect x="17" y="24" width="4" height="6" class="pants" />
  <rect x="12" y="22" width="4" height="6" class="pants" />
  <rect x="11" y="14" width="10" height="10" class="shirt" />
  <circle cx="16" cy="10" r="7" class="skin" />
  <path d="M 9 9 Q 16 0 23 9" class="hair" />
  <circle cx="20" cy="10" r="1" class="eye" />
</g>

<!-- ROW 3: UP -->
<!-- Col 0: Walk 1 -->
<g transform="translate(0, 96)">
  <rect x="10" y="24" width="4" height="6" class="pants" />
  <rect x="18" y="22" width="4" height="6" class="pants" />
  <rect x="9" y="14" width="14" height="10" class="shirt" />
  <circle cx="16" cy="10" r="7" class="hair" />
</g>
<!-- Col 1: Stand -->
<g transform="translate(32, 96)">
  <rect x="10" y="24" width="4" height="6" class="pants" />
  <rect x="18" y="24" width="4" height="6" class="pants" />
  <rect x="9" y="14" width="14" height="10" class="shirt" />
  <circle cx="16" cy="10" r="7" class="hair" />
</g>
<!-- Col 2: Walk 2 -->
<g transform="translate(64, 96)">
  <rect x="10" y="22" width="4" height="6" class="pants" />
  <rect x="18" y="24" width="4" height="6" class="pants" />
  <rect x="9" y="14" width="14" height="10" class="shirt" />
  <circle cx="16" cy="10" r="7" class="hair" />
</g>
</svg>
